<?xml version="1.0" encoding="UTF-8"?>
<svg id="Layer_1" data-name="Layer 1" xmlns="http://www.w3.org/2000/svg" viewBox="0 0 266.62 266.58">
  <defs>
    <style>
      .cls-1 {
        fill: #00e0ff;
        stroke-width: 0px;
      }
    </style>
  </defs>
  <path class="cls-1" d="m107.12.52C58.43,2.92,32.63,12.82,18.04,34.77,5.32,53.9,0,82.88,0,133.39s5.32,79.49,18.04,98.62c12.09,18.14,31.9,27.99,64.85,32.16,15.27,1.93,24.45,2.4,50.56,2.4,43.16,0,65.52-2.81,85.12-10.63,12.88-5.11,23.25-13.4,30.39-24.03,9.54-14.39,14.54-33.36,16.99-64.64.89-11.52.89-56.24,0-67.77-2.45-31.43-7.4-50.2-17.1-64.74C235.98,15.43,214.24,5.42,177.13,1.77,159.35.05,128.28-.52,107.12.52Zm62.55,22.83c56.04,5.37,68.81,18.24,73.86,74.59.47,5.06.68,16.68.68,35.45s-.21,30.39-.68,35.45c-5.11,56.51-18.14,69.54-74.65,74.65-10.37.94-60.52.94-70.89,0-56.51-5.11-69.54-18.14-74.65-74.65-.94-10.37-.94-60.52,0-70.89,3.96-43.84,12.98-59.95,38.16-68.23,11.21-3.65,23.61-5.53,46.91-7.04,6.1-.36,55.83.16,61.25.68Z"/>
  <path class="cls-1" d="m157.53,67.35c-4.43,1.62-3.86.63-28.83,50.51-20.69,41.39-23.56,46.81-24.13,45.98-.36-.57-5.06-9.02-10.48-18.87-5.37-9.85-10.53-18.61-11.42-19.5-2.81-2.87-3.81-3.02-17.25-3.02-9.9,0-12.67.16-14.23.78-8.34,3.49-8.86,15.59-.89,19.96,1.2.68,3.49.94,9.9,1.15l8.34.26,13.81,25.07c7.61,13.81,14.23,25.7,14.7,26.38,1.15,1.72,5.84,4.07,8.13,4.07,2.97,0,5.89-1.15,7.98-3.13,1.51-1.46,6.83-11.68,25.18-48.43,20.59-41.13,23.4-46.45,23.98-45.61.36.57,5.11,9.07,10.48,18.92,10.16,18.51,11.88,20.96,15.33,22,1.15.31,6.62.47,14.49.36l12.56-.16,2.29-1.56c5.68-4.01,6.46-11.68,1.77-16.84-2.35-2.61-3.7-2.97-12.56-3.23l-8.34-.26-13.81-25.07c-7.61-13.81-14.23-25.7-14.7-26.38-.47-.73-2.14-1.93-3.6-2.71-2.97-1.46-5.84-1.67-8.71-.68Z"/>
</svg>