<svg width="319" height="287" viewBox="0 0 319 287" fill="none" xmlns="http://www.w3.org/2000/svg">
<path d="M257.125 34.5745C257.125 26.7308 260.226 19.2085 265.747 13.6622C271.268 8.11587 278.755 5 286.562 5C294.37 5 301.857 8.11587 307.378 13.6622C312.899 19.2085 316 26.7308 316 34.5745V251.454C316 259.298 312.899 266.82 307.378 272.366C301.857 277.913 294.37 281.028 286.562 281.028C278.755 281.028 271.268 277.913 265.747 272.366C260.226 266.82 257.125 259.298 257.125 251.454V247.235C214.696 222.767 169.009 210.897 121.477 206.166L129.425 259.636C129.959 262.485 129.861 265.417 129.138 268.223C128.415 271.029 127.086 273.641 125.243 275.872C123.401 278.103 121.092 279.898 118.481 281.13C115.869 282.362 113.019 283.001 110.134 283H99.3792C95.5646 283 91.8327 281.882 88.6401 279.785C85.4474 277.688 82.9324 274.701 81.4028 271.19L45.0965 202.38C43.7751 202.358 42.4537 202.339 41.1322 202.321C30.7382 202.217 20.8031 198.004 13.4788 190.594C6.15443 183.184 2.03045 173.173 2 162.73L2 123.298C2.03503 112.854 6.15206 102.842 13.4642 95.4182C20.7763 87.9946 30.6984 83.7536 41.093 83.6089C57.343 83.3876 73.5882 82.8946 89.8219 82.1302C149.541 79.0939 210.476 65.3911 257.125 38.774V34.5745ZM276.75 34.5745V251.454C276.75 254.068 277.784 256.576 279.624 258.425C281.464 260.273 283.96 261.312 286.562 261.312C289.165 261.312 291.661 260.273 293.501 258.425C295.341 256.576 296.375 254.068 296.375 251.454V34.5745C296.375 31.9599 295.341 29.4525 293.501 27.6037C291.661 25.7549 289.165 24.7163 286.562 24.7163C283.96 24.7163 281.464 25.7549 279.624 27.6037C277.784 29.4525 276.75 31.9599 276.75 34.5745ZM257.125 61.1915C211.124 84.9496 154.898 97.5089 100.125 101.275V184.734C103.658 184.931 107.17 185.168 110.664 185.444C161.061 189.17 210.614 200.113 257.125 224.738V61.1915ZM80.5 183.728V102.3C67.4729 102.779 54.4412 103.121 41.407 103.325C36.1626 103.387 31.1519 105.514 27.4526 109.249C23.7532 112.984 21.6606 118.029 21.625 123.298V162.73C21.625 173.574 30.417 182.486 41.3678 182.624C54.417 182.776 67.4628 183.144 80.5 183.728ZM67.6064 202.952L99.183 262.83L99.3792 263.303H110.134L110.094 263.027L101.401 204.549C90.1431 203.866 78.8775 203.328 67.6064 202.932V202.952Z" fill="#00E0FF"/>
</svg>
