<?xml version="1.0" encoding="UTF-8"?>
<svg id="Layer_1" data-name="Layer 1" xmlns="http://www.w3.org/2000/svg" viewBox="0 0 31.49 37.01">
  <defs>
    <style>
      .cls-1 {
        fill: #fff;
        fill-rule: evenodd;
      }
    </style>
  </defs>
  <path class="cls-1" d="m30.67,25.23c-.7.69-2.65,2.31-4.57,3.87-1.93,1.57-3.89,3.13-4.64,3.72-.36.29-.82.41-1.27.37l-8.44-.93c-.06,0-.12.01-.17.04l-.45.31c.46.73.31,1.7-.38,2.26l-2.41,1.97c-.32.26-.79.21-1.05-.11-.27-.32-.22-.8.1-1.06l2.41-1.96c.11-.09.12-.24.03-.35l-6.02-7.34c-.08-.1-.24-.12-.35-.03l-2.24,1.8c-.32.26-.79.21-1.05-.11s-.21-.79.11-1.05l2.24-1.81c.7-.56,1.69-.5,2.31.1l2.86-2.56c.38-.35.9-.51,1.41-.43,1.45.2,6.09.85,8.21,1.28.79.16,1.39.54,1.77,1.07.38.54.49,1.16.41,1.74-.16,1.12-1.11,2.23-2.56,2.11h-.02s-2.95-.43-2.95-.43c-.41-.06-.7-.44-.64-.85.06-.41.44-.69.85-.63l2.91.41c.47.03.85-.31.92-.82.04-.24-.01-.48-.14-.66-.13-.18-.37-.38-.84-.47-2.07-.41-6.66-1.06-8.13-1.27-.07,0-.14.01-.19.06l-2.91,2.6,4.4,5.36.56-.37c.34-.23.75-.33,1.16-.29l8.44.92c.07.01.13-.01.18-.05.75-.59,2.7-2.14,4.63-3.71,1.95-1.58,3.82-3.14,4.45-3.76.48-.49.48-1.14.19-1.58-.14-.21-.33-.36-.56-.42-.21-.05-.52-.04-.92.17-1.02.55-2.56,1.72-3.88,2.79-.66.53-1.24,1.02-1.67,1.39-.21.18-.38.32-.5.42-.05.06-.1.09-.13.12l-.04.03h0c-.14.13-.32.2-.5.2-.2,0-.41-.09-.56-.26-.27-.31-.24-.78.07-1.05l.02-.02.03-.03s.08-.07.14-.12c.12-.1.29-.25.51-.44.43-.36,1.03-.86,1.69-1.4,1.31-1.07,2.96-2.33,4.12-2.95.68-.37,1.38-.46,2.01-.3.63.16,1.12.56,1.44,1.06.64.98.63,2.42-.39,3.45Z"/>
  <path class="cls-1" d="m27.62,19.36l-8.4-10.16c-.2-.24-.45-.41-.72-.5v-3.68h6l-2.35-2.51,2.35-2.51h-6.75c-.41,0-.75.34-.75.75v8.05c-.2.11-.38.27-.53.47l-7.61,10.12c-.25.33-.18.8.15,1.05s.8.18,1.05-.15l4.27-5.67.39.63c.5.82,1.57,1.08,2.39.58l.24-.14c.12-.08.28-.04.34.09l.26.45c.71,1.28,2.58,1.18,3.14-.17l.62-1.49,4.76,5.75c.26.32.73.36,1.05.1s.37-.74.1-1.06ZM18.5,1.5h2.54l-.94,1.01.94,1.01h-2.54V1.5Zm1.21,13.98c-.08.19-.35.21-.45.02l-.25-.45c-.49-.87-1.59-1.16-2.44-.65l-.24.15c-.11.07-.27.03-.34-.09l-.7-1.13,2.38-3.16c.1-.13.29-.13.39-.01l2.57,3.11-.92,2.21Z"/>
  <path class="cls-1" d="m17,0v.75c0-.41.34-.75.75-.75h-.75Z"/>
</svg>