<svg width="297" height="287" viewBox="0 0 297 287" fill="none" xmlns="http://www.w3.org/2000/svg">
<path d="M203.9 116.201C203.9 130.947 198.063 145.089 187.673 155.516C177.284 165.943 163.193 171.8 148.5 171.8C133.807 171.8 119.715 165.943 109.326 155.516C98.9364 145.089 93.0996 130.947 93.0996 116.201C93.0996 101.455 98.9364 87.3132 109.326 76.8862C119.715 66.4593 133.807 60.6016 148.5 60.6016C163.193 60.6016 177.284 66.4593 187.673 76.8862C198.063 87.3132 203.9 101.455 203.9 116.201Z" fill="#00E0FF"/>
<path fill-rule="evenodd" clip-rule="evenodd" d="M142.849 282.886C68.9802 279.911 10 218.863 10 143.998C10 67.2296 72.0065 5 148.5 5C224.994 5 287 67.2296 287 143.998C287 220.767 224.994 282.997 148.5 282.997C147.868 283.001 147.235 283.001 146.603 282.997C145.349 282.997 144.096 282.955 142.849 282.886ZM59.6246 231.706C58.589 228.722 58.2365 225.542 58.5933 222.402C58.95 219.262 60.0069 216.243 61.6853 213.569C63.3637 210.895 65.6206 208.635 68.2886 206.956C70.9565 205.277 73.9669 204.223 77.0963 203.872C131.084 197.874 166.249 198.416 219.973 203.997C223.107 204.325 226.124 205.365 228.797 207.04C231.469 208.715 233.725 210.98 235.393 213.662C237.061 216.345 238.098 219.374 238.423 222.519C238.749 225.664 238.355 228.842 237.272 231.811C260.297 208.43 273.191 176.871 273.15 143.998C273.15 74.9093 217.341 18.8998 148.5 18.8998C79.6586 18.8998 23.85 74.9093 23.85 143.998C23.85 178.164 37.4992 209.133 59.6246 231.706Z" fill="#00E0FF"/>
</svg>
