<svg width="297" height="287" viewBox="0 0 297 287" fill="none" xmlns="http://www.w3.org/2000/svg">
<path fill-rule="evenodd" clip-rule="evenodd" d="M9 5H26.375V265.625H287V283H9V5ZM182.75 65.8125C182.75 61.0145 186.64 57.125 191.438 57.125H260.938C265.735 57.125 269.625 61.0145 269.625 65.8125V135.312C269.625 140.11 265.735 144 260.938 144C256.14 144 252.25 140.11 252.25 135.312V90.1497L189.474 166.876C187.919 168.776 185.634 169.929 183.183 170.052C180.731 170.174 178.343 169.254 176.607 167.518L131.671 122.582L68.1509 209.922C65.3289 213.803 59.8956 214.66 56.0153 211.838C52.135 209.016 51.2771 203.583 54.0991 199.703L123.599 104.14C125.093 102.085 127.412 100.788 129.945 100.589C132.478 100.39 134.971 101.31 136.768 103.107L182.105 148.444L242.605 74.5H191.438C186.64 74.5 182.75 70.6105 182.75 65.8125Z" fill="#00E0FF"/>
</svg>
