<svg width="319" height="287" viewBox="0 0 319 287" fill="none" xmlns="http://www.w3.org/2000/svg">
<path d="M15.21 190.333H36.7C38.3885 190.333 39.77 191.636 39.77 193.229V256.938H107.31C108.998 256.938 110.38 258.241 110.38 259.833V280.104C110.38 281.697 108.998 283 107.31 283H38.235C23.806 283 12.14 271.996 12.14 258.385V193.229C12.14 191.636 13.5215 190.333 15.21 190.333ZM211.69 256.938H279.23V193.229C279.23 191.636 280.611 190.333 282.3 190.333H303.79C305.478 190.333 306.86 191.636 306.86 193.229V258.385C306.86 271.996 295.194 283 280.765 283H211.69C210.001 283 208.62 281.697 208.62 280.104V259.833C208.62 258.241 210.001 256.938 211.69 256.938ZM107.31 31.0625H39.77V94.7708C39.77 96.3635 38.3885 97.6667 36.7 97.6667H15.21C13.5215 97.6667 12.14 96.3635 12.14 94.7708V29.6146C12.14 16.0042 23.806 5.00001 38.235 5.00001H107.31C108.998 5.00001 110.38 6.30313 110.38 7.89584V28.1667C110.38 29.7594 108.998 31.0625 107.31 31.0625ZM303.79 97.6667H282.3C280.611 97.6667 279.23 96.3635 279.23 94.7708V31.0625H211.69C210.001 31.0625 208.62 29.7594 208.62 28.1667V7.89584C208.62 6.30313 210.001 5.00001 211.69 5.00001H280.765C295.194 5.00001 306.86 16.0042 306.86 29.6146V94.7708C306.86 96.3635 305.478 97.6667 303.79 97.6667ZM309.93 157.031H9.07C7.3815 157.031 6 155.728 6 154.135V133.865C6 132.272 7.3815 130.969 9.07 130.969H309.93C311.618 130.969 313 132.272 313 133.865V154.135C313 155.728 311.618 157.031 309.93 157.031Z" fill="#00E0FF"/>
</svg>
