<?xml version="1.0" encoding="UTF-8"?>
<svg id="Layer_1" data-name="Layer 1" xmlns="http://www.w3.org/2000/svg" viewBox="0 0 2558.75 661.68">
  <defs>
    <style>
      .cls-1 {
        fill: #fff;
        stroke-width: 0px;
      }
    </style>
  </defs>
  <path class="cls-1" d="m2207,.23c-29.4,2.5-48.1,5.5-68.5,10.9-121.3,31.8-210.2,126.1-235,249-5,24.9-6.8,43.1-6.8,70,0,24.8,1.1,38.9,4.9,61.5,16.1,96,71.7,177.1,154.7,225.9,38.6,22.6,85.2,37.7,133.2,43.1,14.2,1.6,64.8,1.3,80-.5,63.9-7.4,120.3-30.3,168.6-68.6,13.5-10.6,39.4-36.5,49.9-49.9,56.7-72.2,80.8-166.8,66.9-263.5-17.7-123.5-99.5-222.2-216.4-261-21.5-7.1-49.3-13-73-15.5-10.5-1.1-50.8-2.1-58.5-1.4Zm64,53.8c50.6,8,95.5,27.3,132.4,57,50.2,40.4,84.4,100.5,95.5,167.6,3.1,19,4.1,31.4,4.1,52.1,0,48.8-9.6,91.6-29.6,131.9-13.7,27.5-28.4,48.1-49.9,69.5-43,43-96.1,68.3-161,76.6-15.1,2-58,1.7-73.4-.5-35-4.9-62.6-13.3-91.6-28.1-81.9-41.7-133.8-119.9-144.1-217.5-1.9-18.7-1.4-56,1.1-74,6.9-49.9,25-94.6,53.7-132.7,9.5-12.6,30.6-34.4,43.3-44.6,38.7-31.2,87.1-51.5,137-57.6,5-.6,10.4-1.3,12-1.5,1.7-.2,15.8-.3,31.5-.1,20.3.2,31.5.8,39,1.9Z"/>
  <path class="cls-1" d="m2154.7,122.33c-.4.3-.7,8.8-.7,18.8v18.2l8.3.5c13.8.9,18.7,4.4,20.7,14.9.6,3.3,1,64.6,1,167.5v162.4h87l-.2-180.3-.3-180.2-2.3-5.1c-4.7-10.4-12.7-15.1-28.1-16.5-11.3-1-84.5-1.2-85.4-.2Z"/>
  <path class="cls-1" d="m2078.5,207.73c-11.9,1.8-20.4,8-24.2,17.8-1.7,4.3-1.8,13.1-2.1,141.9l-.2,137.2,42.2-.2,42.3-.3V207.13l-26-.1c-14.3-.1-28.7.2-32,.7Z"/>
  <path class="cls-1" d="m2319,355.63v149h84v-135.4c0-131.9-.1-135.6-2-141.7-2.4-8-6.6-13.1-13.3-16.3-7.7-3.8-15.6-4.6-43.4-4.6h-25.3v149Z"/>
  <path class="cls-1" d="m763.5,107.63c-18.4,2.6-31.5,11.3-37.1,24.5-2.3,5.5-3.3,16.6-2.3,24.6,3,23.8,20.4,36,51.4,36,19.7,0,32.9-4.5,42.1-14.3,14.8-15.9,14.7-42.9-.4-57.6-5.4-5.3-13.2-9.4-21.9-11.7-7.1-1.9-23.7-2.7-31.8-1.5Z"/>
  <path class="cls-1" d="m75,130.13v16.5h4.8c10.4,0,21.4,1.9,25.7,4.4,6.4,3.8,7.8,7.6,7.3,20-.4,9-.9,11.4-5,22.2C102.2,207.73,0,517.83,0,520.03c0,1.4,5.1,1.6,46,1.6h46l1-2.3c.6-1.2,6.2-19.8,12.5-41.2,6.4-21.5,12.7-42.7,14.1-47.2l2.5-8.3h120.5l14.6,49.2,14.6,49.3,49.7.3,49.7.2-.6-2.5c-5.8-23.2-108.2-383.8-110-387.3-3.2-6.4-10-12.4-17.2-15.3l-5.9-2.4-81.2-.3-81.3-.3v16.6Zm134,146.7c11.5,42.7,21,78.3,21,79.2,0,1.4-4.6,1.6-46.5,1.6-25.6,0-46.5-.3-46.5-.7s11.1-36.9,24.7-81.1c17.2-55.8,25-79.8,25.5-78.6.4,1.1,10.2,36.8,21.8,79.6Z"/>
  <path class="cls-1" d="m374,130.03v16.4l7.3.7c11.3,1,14.7,2.3,19.3,6.9,3.2,3.1,4.4,5.4,5.3,9.4.8,3.8,1.1,54.3,1.1,181.7v176.5h90l-.2-194.3-.3-194.3-2.6-4.9c-2.8-5.5-8.9-10.7-14.7-12.7-2.7-.9-17.1-1.3-54.4-1.6l-50.8-.3v16.5Z"/>
  <path class="cls-1" d="m539,129.93v16.4l9,1.1c11.2,1.4,16.2,3.9,19.8,10.2l2.7,4.5.3,179.8.2,179.7,45.3-.2,45.2-.3v-192.5c0-186.4-.1-192.7-1.9-197.4-2.5-6.6-7.5-11.9-13.9-14.7l-5.2-2.4-50.7-.3-50.8-.3v16.4Z"/>
  <path class="cls-1" d="m1005.5,212.63c-23.4,1.6-54.9,7.8-75,14.7-10.8,3.7-36.5,15.7-36.5,17s19.2,53.7,20,54.6c.4.4,4.6-.8,9.3-2.7,32.4-13,70.3-20.4,91.7-17.7,20,2.6,26.7,10.4,27.7,32.7l.6,11.2-7.4,1.2c-17.8,2.9-57.1,10.3-66.8,12.6-21,4.9-43.5,13.6-55.6,21.4-25.4,16.7-37.5,43-37.5,82,0,42.3,13.9,68.9,41,78.8,10.3,3.7,20,5.2,35,5.2,22.6,0,35.1-3,56-13.5,14.1-7,19.7-10.7,29.8-19.5l7.9-6.8.5,10.3c.4,9.1.8,10.8,3.5,15.6,2.5,4.4,4.1,6,8.8,8.4l5.9,3,47.8.3,47.8.3v-32.1h-5.4c-10.3,0-18-4.4-21.7-12.5-1.8-3.8-1.9-8.3-1.9-85.5,0-46-.5-87.4-1-95-3.2-42.3-17.6-66.4-45.8-76.7-19.2-7-45.9-9.5-78.7-7.3Zm37.5,191.3v30.3l-3.2,3.1c-15.5,14.7-36.1,24.3-52.4,24.3-13.5,0-21.6-5.3-24.8-16.1-1.9-6.3-2.1-24.3-.5-32.1,3.4-16,14.4-24,44.9-32.8,8.6-2.5,29.2-6.8,33.3-6.9l2.7-.1v30.3Z"/>
  <path class="cls-1" d="m1374.5,214.23c-21.8,3.6-44.3,15.4-71,37.2l-11,9-.5-13.2c-.5-12.3-.7-13.7-3.5-19.2-2.7-5.1-3.8-6.2-8.9-8.9l-6-3-47.8-.3-47.8-.3v32.7l8.2,1.2c9.4,1.4,14.3,4.1,17.9,9.9l2.4,3.8.5,129,.5,129,45.2.3,45.3.2.2-104.2.3-104.2,9-7.3c15.4-12.4,29.8-18.2,45.6-18.3,14.2,0,20.9,4.3,25.2,16.4.8,2.2,1.3,34.8,1.7,110.1l.5,107,45.3.3,45.3.2-.4-118.7c-.4-128-.4-126.3-5.7-143.8-2.7-8.7-8.1-19-12.7-24.4-4.8-5.6-15-12.7-23.2-16.2-13.3-5.6-36.3-7.4-54.6-4.3Z"/>
  <path class="cls-1" d="m706,231.93v16.4l7.5.6c4.1.4,9,1.3,10.8,2.1,4.2,1.7,8.3,6.6,9.7,11.4.6,2.4,1,46.7,1,131.5v127.7l45.3-.2,45.2-.3V237.13l-2.8-5.7c-3.1-6.4-7-10.1-13.7-13.2-4.3-2-6.2-2.1-53.7-2.4l-49.3-.3v16.4Z"/>
  <path class="cls-1" d="m1543.2,216.73c-10,1.7-17.7,7.6-20.3,15.6-.9,2.6-1.4,14.3-1.6,37.5l-.4,33.8h32.1v-5.8c0-8,1.6-12.7,5.7-17.3,6.1-6.7,8.2-7,52.4-6.7l38.6.3-65.9,91.9-65.8,92v63.6h234v-59l-67-.2-67-.3,64.5-92,64.5-92-.3-31-.2-31-99-.1c-54.4-.1-101.4.2-104.3.7Z"/>
</svg>