<?xml version="1.0" encoding="UTF-8"?>
<svg id="Layer_1" data-name="Layer 1" xmlns="http://www.w3.org/2000/svg" viewBox="0 0 1509.01 1507.15">
  <defs>
    <style>
      .cls-1 {
        fill: #fff;
        stroke-width: 0px;
      }
    </style>
  </defs>
  <path class="cls-1" d="m712.74.17c-81.1,5.1-140.7,16.3-210,39.4-131.2,43.7-243.9,120.1-330.9,224.5C82.54,371.27,25.24,503.87,6.84,646.57c-9.3,71.3-9.1,145.9.5,216.8,21.9,162.8,92.3,309.3,202.9,422.1,95,97,210.8,163.4,345,198.1,40.1,10.3,80.6,17.1,133.5,22.2,21.8,2.1,116.6,1.7,139-.5,101.5-10.3,182.2-31.8,264.3-70.3,75.5-35.4,144-83.5,202.7-142.3,113.9-114.1,186.7-265.7,207.9-433.1,8.5-66.8,8.5-146.4,0-213-26-203.9-126.7-379.6-286.3-499.9-46.9-35.3-107.4-69.1-163.6-91.4-71.7-28.4-142-45.1-222.5-52.8-17.8-1.7-30.6-2.1-67-2.4-24.7-.1-47.5-.1-50.5.1Zm99.7,118.9c33.9,2.7,78.1,10.1,110.8,18.5,137.9,35.5,253.9,113,336.7,225,47.9,64.8,83.3,141.7,103.2,224,31.3,129.7,24.6,274.1-18.3,395.7-67.9,192.2-218.3,331.8-414.6,384.7-54.3,14.7-115.9,22.6-175.5,22.6-132.1,0-254.9-36.1-358.1-105-129-86.4-218.3-219.2-253.3-377-25.3-114.2-21.7-238.4,9.9-348,26.5-91.7,70.9-172.8,131.5-240.4,75.9-84.6,171.7-144.5,281.5-176,53.8-15.5,97.6-22.6,161.5-26,13.3-.7,67.1.5,84.7,1.9Z"/>
  <path class="cls-1" d="m587.74,321.07v43.5h15.3c8.6.1,17.8.6,21.3,1.4,15.5,3.3,23.6,11.3,28.1,27.8,1.6,5.9,1.8,29.9,2,380.5l.3,374.3h200v-396.3c0-258.3-.4-399.9-1-406.8-4.1-42.8-23.5-62.5-66.1-66.9-6.2-.6-46.8-1-105-1h-94.9v43.5Z"/>
  <path class="cls-1" d="m418.74,472.07c-35.8,4.5-54.6,20.8-62.3,54l-2.1,9-.3,306.7-.3,306.8h194V470.57l-59.2.1c-42.3.1-62.3.5-69.8,1.4Z"/>
  <path class="cls-1" d="m961.74,809.57v339h194v-298.3c0-185.8-.4-302.4-1-309.2-3.8-43-23.7-64.2-65-69.1-8.5-1-26.8-1.3-69.7-1.4h-58.3v339Z"/>
</svg>